<?xml version="1.0" standalone="no"?>
<!DOCTYPE svg PUBLIC "-//W3C//DTD SVG 20010904//EN"
 "http://www.w3.org/TR/2001/REC-SVG-20010904/DTD/svg10.dtd">
<svg version="1.0" xmlns="http://www.w3.org/2000/svg"
 width="1080.000000pt" height="1080.000000pt" viewBox="0 0 1080.000000 1080.000000"
 preserveAspectRatio="xMidYMid meet">

<g transform="translate(0.000000,1080.000000) scale(0.100000,-0.100000)"
fill="#000000" stroke="none">
<path d="M4657 10593 c-4 -3 -7 -1640 -7 -3636 l0 -3630 -428 424 c-584 579
-836 810 -937 859 -134 64 -462 64 -626 0 -219 -87 -405 -307 -470 -559 -26
-97 -28 -276 -5 -373 36 -155 92 -233 402 -563 250 -267 1517 -1537 1994
-2000 560 -543 625 -602 690 -634 52 -25 63 -26 195 -25 255 2 260 6 804 533
464 451 1824 1836 2229 2271 177 191 206 235 243 377 26 100 36 286 20 378
-24 137 -106 297 -209 407 -81 87 -217 173 -321 204 -188 55 -500 37 -612 -35
-112 -72 -564 -497 -1099 -1035 -124 -124 -228 -226 -232 -226 -5 0 -8 1636
-8 3635 l0 3635 -808 0 c-445 0 -812 -3 -815 -7z"/>
</g>
</svg>
