<?xml version="1.0" standalone="no"?>
<!DOCTYPE svg PUBLIC "-//W3C//DTD SVG 20010904//EN"
 "http://www.w3.org/TR/2001/REC-SVG-20010904/DTD/svg10.dtd">
<svg version="1.0" xmlns="http://www.w3.org/2000/svg"
 width="1080.000000pt" height="1080.000000pt" viewBox="0 0 1080.000000 1080.000000"
 preserveAspectRatio="xMidYMid meet">

<g transform="translate(0.000000,1080.000000) scale(0.100000,-0.100000)"
fill="#000000" stroke="none">
<path d="M6980 9721 c-221 -6 -226 -7 -270 -33 -58 -34 -105 -83 -125 -132
-21 -50 -21 -155 0 -200 26 -55 82 -113 131 -137 44 -21 62 -22 331 -27 l285
-5 -833 -833 -834 -834 188 -187 187 -188 833 833 c457 457 835 832 839 832 3
0 8 -134 10 -297 3 -292 4 -299 26 -335 57 -91 162 -146 254 -134 94 13 170
65 216 150 15 28 17 90 20 676 2 355 1 669 -3 698 -8 61 -43 109 -103 138 -34
17 -70 19 -482 20 -245 1 -546 -2 -670 -5z"/>
<path d="M1345 9680 c-140 -3 -227 -9 -240 -17 -26 -15 -69 -61 -86 -93 -18
-32 -24 -689 -11 -1100 9 -310 12 -321 91 -393 54 -49 101 -67 175 -67 93 1
152 34 223 126 l28 37 6 296 c3 163 6 298 7 301 1 3 378 -371 837 -830 l835
-835 187 188 188 187 -833 833 c-457 457 -832 835 -832 840 0 4 116 7 259 7
321 0 350 5 414 68 68 66 90 113 90 188 -1 101 -55 194 -137 236 -37 19 -65
22 -271 29 -246 8 -574 8 -930 -1z"/>
<path d="M4440 9440 c-211 -17 -509 -77 -720 -145 -328 -106 -567 -221 -857
-412 -116 -76 -313 -227 -313 -241 0 -9 703 -712 712 -712 4 0 47 29 96 64
303 219 695 374 1065 421 295 38 675 8 961 -76 193 -56 428 -161 589 -263 l89
-56 361 360 362 361 -30 25 c-109 91 -457 299 -633 378 -316 141 -635 233
-927 266 -238 27 -610 42 -755 30z"/>
<path d="M6922 7907 c-193 -193 -352 -356 -352 -360 0 -5 15 -27 34 -50 102
-126 246 -384 320 -575 168 -429 204 -935 99 -1377 -165 -698 -625 -1273
-1268 -1586 -345 -168 -654 -239 -1039 -239 -202 0 -292 9 -471 47 -344 72
-706 242 -977 458 l-93 74 -357 -357 -358 -357 -25 25 -25 25 590 590 590 590
-187 187 -188 188 -836 -836 -837 -837 -3 294 -4 294 -27 46 c-51 87 -134 139
-221 139 -101 0 -187 -47 -234 -128 -25 -42 -27 -57 -36 -221 -5 -97 -6 -408
-3 -691 7 -578 3 -547 85 -605 l43 -30 671 1 672 0 48 23 c59 29 129 106 145
159 36 119 -15 245 -126 314 -36 22 -46 23 -335 28 l-297 5 242 242 243 241
115 -99 c442 -383 947 -631 1550 -762 203 -44 302 -52 655 -52 257 1 358 5
455 18 432 60 865 212 1269 445 l124 72 41 -37 c23 -20 383 -374 801 -786 777
-767 909 -893 1028 -978 104 -73 146 -84 317 -84 239 1 338 40 485 189 152
154 190 251 188 486 -2 281 13 262 -998 1280 -666 671 -831 844 -858 897 -15
29 -14 32 50 144 232 403 396 874 443 1279 32 270 22 759 -20 1005 -63 366
-220 796 -411 1122 -106 179 -323 480 -354 490 -6 2 -169 -156 -363 -350z"/>
<path d="M1992 8044 c-358 -503 -576 -1080 -621 -1643 -14 -169 -14 -488 -1
-646 44 -526 233 -1065 537 -1529 l85 -129 364 364 365 365 -59 108 c-130 233
-213 470 -263 753 -29 163 -37 500 -16 668 45 355 182 738 357 995 22 32 40
63 40 67 0 4 -161 169 -359 367 l-358 358 -71 -98z"/>
</g>
</svg>
