<?xml version="1.0" standalone="no"?>
<!DOCTYPE svg PUBLIC "-//W3C//DTD SVG 20010904//EN"
 "http://www.w3.org/TR/2001/REC-SVG-20010904/DTD/svg10.dtd">
<svg version="1.0" xmlns="http://www.w3.org/2000/svg"
 width="512.000000pt" height="512.000000pt" viewBox="0 0 512.000000 512.000000"
 preserveAspectRatio="xMidYMid meet">

<g transform="translate(0.000000,512.000000) scale(0.100000,-0.100000)"
fill="#000000" stroke="none">
<path d="M2160 3824 c-25 -2 -103 -8 -175 -14 -206 -17 -434 -48 -645 -90
-627 -124 -1077 -338 -1248 -594 -68 -102 -87 -160 -87 -271 0 -111 19 -169
87 -271 196 -294 766 -533 1533 -643 318 -46 452 -55 892 -55 l423 -1 -199
-200 c-109 -110 -204 -210 -210 -222 -25 -50 -2 -126 48 -156 45 -26 101 -22
147 12 78 57 593 585 609 623 19 47 19 89 0 136 -17 41 -579 612 -627 638 -36
19 -94 18 -129 -3 -50 -30 -73 -106 -48 -156 6 -12 99 -110 207 -219 l195
-196 -47 -7 c-82 -13 -768 2 -946 19 -738 74 -1326 259 -1573 495 -84 80 -112
131 -112 206 0 75 28 126 112 206 247 236 836 421 1573 495 353 35 961 30
1345 -12 554 -60 1068 -208 1350 -388 77 -50 170 -139 204 -196 37 -63 37
-147 0 -210 -34 -57 -127 -146 -204 -196 -74 -47 -277 -144 -369 -175 -80 -28
-121 -63 -130 -113 -14 -73 47 -146 122 -146 40 0 221 69 352 135 198 99 338
209 418 330 68 101 87 159 87 270 0 111 -19 169 -87 271 -224 335 -888 582
-1828 680 -146 15 -915 28 -1040 18z"/>
</g>
</svg>
