<?xml version="1.0" standalone="no"?>
<!DOCTYPE svg PUBLIC "-//W3C//DTD SVG 20010904//EN"
 "http://www.w3.org/TR/2001/REC-SVG-20010904/DTD/svg10.dtd">
<svg version="1.0" xmlns="http://www.w3.org/2000/svg"
 width="512.000000pt" height="512.000000pt" viewBox="0 0 512.000000 512.000000"
 preserveAspectRatio="xMidYMid meet">

<g transform="translate(0.000000,512.000000) scale(0.100000,-0.100000)"
fill="#000000" stroke="none">
<path d="M1983 5102 c-72 -26 -127 -66 -163 -120 -51 -77 -60 -126 -60 -323
l0 -178 -517 -3 -518 -3 -56 -26 c-71 -33 -125 -87 -158 -158 -26 -55 -26 -58
-26 -291 0 -233 0 -236 26 -291 46 -98 141 -169 246 -185 l43 -6 0 -1472 c0
-1643 -4 -1542 72 -1695 82 -166 251 -297 434 -336 103 -22 2405 -22 2508 0
183 39 352 170 434 336 76 153 72 52 72 1695 l0 1472 43 6 c105 16 200 87 246
185 26 55 26 58 26 291 0 233 0 236 -26 291 -33 71 -87 125 -158 158 l-56 26
-517 3 -517 3 -3 197 c-3 188 -4 199 -29 253 -33 71 -87 125 -158 158 l-56 26
-540 2 c-499 3 -544 1 -592 -15z m983 -328 c60 -44 69 -67 72 -185 l4 -109
-481 0 -481 0 0 94 c0 102 9 137 43 175 46 50 56 51 449 48 353 -2 368 -3 394
-23z m1280 -640 c53 -39 69 -71 69 -134 0 -63 -16 -95 -69 -134 -27 -21 -29
-21 -1664 -24 -1129 -2 -1648 0 -1674 8 -101 29 -140 168 -71 251 53 62 -62
59 1735 56 1646 -2 1647 -2 1674 -23z m-248 -2091 l-3 -1478 -26 -56 c-33 -71
-87 -125 -158 -158 l-56 -26 -1195 0 -1195 0 -56 26 c-71 33 -125 87 -158 158
l-26 56 -3 1478 -2 1477 1440 0 1440 0 -2 -1477z"/>
<path d="M1695 2866 c-41 -18 -83 -69 -90 -109 -3 -18 -4 -478 -3 -1024 3
-984 3 -992 24 -1019 39 -53 71 -69 134 -69 63 0 95 16 134 69 21 27 21 33 21
1046 0 1013 0 1019 -21 1046 -11 15 -32 37 -46 47 -33 25 -113 32 -153 13z"/>
<path d="M2495 2866 c-41 -18 -83 -69 -90 -109 -3 -18 -4 -478 -3 -1024 3
-984 3 -992 24 -1019 39 -53 71 -69 134 -69 63 0 95 16 134 69 21 27 21 33 21
1046 0 1013 0 1019 -21 1046 -11 15 -32 37 -46 47 -33 25 -113 32 -153 13z"/>
<path d="M3294 2866 c-17 -8 -44 -31 -60 -52 l-29 -37 0 -1018 c0 -1012 0
-1018 21 -1045 39 -53 71 -69 134 -69 63 0 95 16 134 69 21 27 21 33 21 1046
0 1013 0 1019 -21 1046 -11 15 -32 37 -46 47 -34 25 -113 32 -154 13z"/>
</g>
</svg>
