<?xml version="1.0" standalone="no"?>
<!DOCTYPE svg PUBLIC "-//W3C//DTD SVG 20010904//EN"
 "http://www.w3.org/TR/2001/REC-SVG-20010904/DTD/svg10.dtd">
<svg version="1.0" xmlns="http://www.w3.org/2000/svg"
 width="512.000000pt" height="512.000000pt" viewBox="0 0 512.000000 512.000000"
 preserveAspectRatio="xMidYMid meet">

<g transform="translate(0.000000,512.000000) scale(0.100000,-0.100000)"
fill="#000000" stroke="none">
<path d="M1931 4825 c-950 -136 -1652 -939 -1651 -1893 1 -919 628 -1685 1537
-1879 119 -25 145 -27 373 -27 230 -1 253 1 375 27 292 63 576 190 778 350
l39 30 556 -555 c307 -306 573 -564 592 -574 22 -11 57 -18 95 -19 121 0 210
89 210 210 -1 38 -8 73 -19 95 -10 19 -268 285 -573 591 l-554 556 56 79 c159
220 262 457 322 739 26 122 28 145 27 375 0 228 -2 254 -27 373 -168 788 -765
1370 -1552 1512 -128 23 -450 29 -584 10z m370 -415 c208 -17 378 -64 559
-155 384 -193 665 -543 771 -961 109 -432 18 -892 -247 -1250 -464 -628 -1345
-787 -2001 -361 -223 144 -394 334 -516 574 -374 734 -78 1631 663 2003 158
80 393 143 570 153 30 2 62 4 70 5 8 1 67 -3 131 -8z"/>
<path d="M1399 3093 c-35 -19 -64 -43 -84 -71 -27 -39 -30 -52 -30 -117 0 -65
3 -78 30 -117 17 -23 51 -54 75 -68 l45 -25 781 0 781 0 49 30 c57 35 104 114
104 175 0 86 -47 160 -124 196 l-51 24 -761 0 -760 0 -55 -27z"/>
</g>
</svg>
