<?xml version="1.0" standalone="no"?>
<!DOCTYPE svg PUBLIC "-//W3C//DTD SVG 20010904//EN"
 "http://www.w3.org/TR/2001/REC-SVG-20010904/DTD/svg10.dtd">
<svg version="1.0" xmlns="http://www.w3.org/2000/svg"
 width="1080.000000pt" height="1080.000000pt" viewBox="0 0 1080.000000 1080.000000"
 preserveAspectRatio="xMidYMid meet">

<g transform="translate(0.000000,1080.000000) scale(0.100000,-0.100000)"
fill="#000000" stroke="none">
<path d="M5173 10375 c-125 -35 -187 -83 -508 -392 -545 -525 -2027 -2033
-2445 -2488 -130 -142 -178 -268 -187 -495 -5 -107 -2 -139 16 -210 60 -244
237 -456 456 -550 161 -69 517 -71 650 -3 105 54 447 375 1224 1149 74 74 136
134 138 134 2 0 3 -1636 3 -3635 l0 -3635 815 0 815 0 0 3637 0 3637 478 -475
c650 -647 821 -800 934 -834 177 -52 448 -39 605 30 123 55 246 162 328 286
150 224 180 531 77 770 -48 111 -271 348 -1277 1357 -736 739 -1380 1372
-1630 1602 -124 114 -149 124 -310 127 -90 2 -146 -2 -182 -12z"/>
</g>
</svg>
